<svg xmlns="http://www.w3.org/2000/svg" width="1400" height="900" viewBox="0 0 1400 900">
  <rect width="1400" height="900" fill="#f8fafc"/>
  <text x="60" y="70" font-family="Arial, sans-serif" font-size="36" font-weight="700" fill="#0f172a">Wireframe 02 — Dashboard</text>
  <text x="60" y="108" font-family="Arial, sans-serif" font-size="18" fill="#334155">Goal: Give users instant overview and direct access to card and feature actions.</text>

  <rect x="70" y="150" width="1260" height="680" rx="20" fill="#ffffff" stroke="#94a3b8" stroke-width="2"/>

  <rect x="100" y="180" width="1200" height="80" rx="14" fill="#f1f5f9" stroke="#64748b"/>
  <rect x="125" y="198" width="70" height="44" rx="8" fill="#e2e8f0" stroke="#64748b"/>
  <text x="142" y="226" font-family="Arial, sans-serif" font-size="14" fill="#334155">Logo</text>
  <rect x="220" y="198" width="250" height="44" rx="8" fill="#e2e8f0" stroke="#64748b"/>
  <text x="241" y="226" font-family="Arial, sans-serif" font-size="14" fill="#334155">General + Total Money</text>
  <rect x="998" y="198" width="130" height="44" rx="8" fill="#e2e8f0" stroke="#64748b"/>
  <text x="1025" y="226" font-family="Arial, sans-serif" font-size="14" fill="#334155">Profile</text>
  <rect x="1145" y="198" width="130" height="44" rx="8" fill="#e2e8f0" stroke="#64748b"/>
  <text x="1180" y="226" font-family="Arial, sans-serif" font-size="14" fill="#334155">Logout</text>

  <rect x="100" y="290" width="1200" height="280" rx="14" fill="#f8fafc" stroke="#64748b"/>
  <text x="120" y="322" font-family="Arial, sans-serif" font-size="18" font-weight="700" fill="#0f172a">Cards Grid</text>

  <rect x="130" y="340" width="260" height="210" rx="16" fill="#ffffff" stroke="#64748b"/>
  <text x="200" y="380" font-family="Arial, sans-serif" font-size="20" fill="#334155">Food Card</text>
  <rect x="160" y="500" width="200" height="35" rx="8" fill="#e2e8f0" stroke="#64748b"/>
  <text x="214" y="523" font-family="Arial, sans-serif" font-size="14" fill="#334155">Manage</text>

  <rect x="420" y="340" width="260" height="210" rx="16" fill="#ffffff" stroke="#64748b"/>
  <text x="483" y="380" font-family="Arial, sans-serif" font-size="20" fill="#334155">Saving Card</text>
  <rect x="450" y="500" width="200" height="35" rx="8" fill="#e2e8f0" stroke="#64748b"/>
  <text x="504" y="523" font-family="Arial, sans-serif" font-size="14" fill="#334155">Manage</text>

  <rect x="710" y="340" width="260" height="210" rx="16" fill="#ffffff" stroke="#64748b"/>
  <text x="765" y="380" font-family="Arial, sans-serif" font-size="20" fill="#334155">Renting Card</text>
  <rect x="740" y="500" width="200" height="35" rx="8" fill="#e2e8f0" stroke="#64748b"/>
  <text x="794" y="523" font-family="Arial, sans-serif" font-size="14" fill="#334155">Manage</text>

  <rect x="1000" y="340" width="270" height="210" rx="16" fill="#f8fafc" stroke="#64748b" stroke-dasharray="7 7"/>
  <text x="1075" y="445" font-family="Arial, sans-serif" font-size="24" fill="#334155">+ Add Card</text>

  <rect x="100" y="600" width="780" height="200" rx="14" fill="#f8fafc" stroke="#64748b"/>
  <text x="120" y="635" font-family="Arial, sans-serif" font-size="18" font-weight="700" fill="#0f172a">Consumption Donut Chart</text>
  <circle cx="260" cy="710" r="70" fill="#fff" stroke="#64748b" stroke-width="2"/>
  <circle cx="260" cy="710" r="42" fill="#f8fafc" stroke="#94a3b8" stroke-width="2"/>
  <rect x="360" y="665" width="480" height="90" rx="10" fill="#ffffff" stroke="#94a3b8" stroke-dasharray="6 6"/>
  <text x="390" y="718" font-family="Arial, sans-serif" font-size="16" fill="#334155">Legend + percentages + hover tooltips</text>

  <rect x="920" y="600" width="380" height="200" rx="14" fill="#f8fafc" stroke="#64748b" stroke-dasharray="7 7"/>
  <text x="944" y="640" font-family="Arial, sans-serif" font-size="18" font-weight="700" fill="#0f172a">Secondary Navigation</text>
  <text x="944" y="676" font-family="Arial, sans-serif" font-size="16" fill="#334155">• Exchange Rates</text>
  <text x="944" y="704" font-family="Arial, sans-serif" font-size="16" fill="#334155">• Family Expenses</text>
  <text x="944" y="732" font-family="Arial, sans-serif" font-size="16" fill="#334155">• Workers Management</text>
  <text x="944" y="760" font-family="Arial, sans-serif" font-size="16" fill="#334155">• Theme switch always available</text>
</svg>
