<svg xmlns="http://www.w3.org/2000/svg" width="1400" height="900" viewBox="0 0 1400 900">
  <rect width="1400" height="900" fill="#f8fafc"/>
  <text x="60" y="70" font-family="Arial, sans-serif" font-size="36" font-weight="700" fill="#0f172a">Wireframe 03 — Card Detail</text>
  <text x="60" y="108" font-family="Arial, sans-serif" font-size="18" fill="#334155">Goal: Execute money operations and inspect transaction analytics from one focused screen.</text>

  <rect x="70" y="150" width="1260" height="680" rx="20" fill="#ffffff" stroke="#94a3b8" stroke-width="2"/>

  <rect x="100" y="180" width="1200" height="70" rx="12" fill="#f1f5f9" stroke="#64748b"/>
  <rect x="125" y="196" width="130" height="38" rx="8" fill="#e2e8f0" stroke="#64748b"/>
  <text x="170" y="220" font-family="Arial, sans-serif" font-size="14" fill="#334155">Back</text>
  <text x="590" y="222" font-family="Arial, sans-serif" font-size="24" font-weight="700" fill="#0f172a">Card Detail: Food / Saving / Renting</text>

  <rect x="100" y="280" width="390" height="520" rx="14" fill="#f8fafc" stroke="#64748b"/>
  <text x="125" y="316" font-family="Arial, sans-serif" font-size="18" font-weight="700" fill="#0f172a">Credit Card Mockup</text>
  <rect x="130" y="340" width="330" height="210" rx="20" fill="#e2e8f0" stroke="#64748b"/>
  <text x="230" y="445" font-family="Arial, sans-serif" font-size="20" fill="#334155">Balance + Branding</text>
  <rect x="130" y="570" width="160" height="42" rx="8" fill="#dbeafe" stroke="#1d4ed8"/>
  <text x="168" y="597" font-family="Arial, sans-serif" font-size="14" fill="#1e3a8a">Deposit</text>
  <rect x="300" y="570" width="160" height="42" rx="8" fill="#fee2e2" stroke="#b91c1c"/>
  <text x="346" y="597" font-family="Arial, sans-serif" font-size="14" fill="#991b1b">Withdraw</text>

  <rect x="520" y="280" width="780" height="240" rx="14" fill="#f8fafc" stroke="#64748b"/>
  <text x="545" y="316" font-family="Arial, sans-serif" font-size="18" font-weight="700" fill="#0f172a">Spend Form</text>
  <rect x="550" y="340" width="340" height="46" rx="9" fill="#fff" stroke="#64748b"/>
  <text x="565" y="369" font-family="Arial, sans-serif" font-size="14" fill="#64748b">Description</text>
  <rect x="905" y="340" width="170" height="46" rx="9" fill="#fff" stroke="#64748b"/>
  <text x="920" y="369" font-family="Arial, sans-serif" font-size="14" fill="#64748b">Amount</text>
  <rect x="1090" y="340" width="180" height="46" rx="9" fill="#fff" stroke="#64748b"/>
  <text x="1113" y="369" font-family="Arial, sans-serif" font-size="14" fill="#64748b">Category</text>
  <rect x="550" y="405" width="720" height="46" rx="9" fill="#dbeafe" stroke="#1d4ed8"/>
  <text x="862" y="434" font-family="Arial, sans-serif" font-size="16" font-weight="700" fill="#1e3a8a">Record Spend</text>

  <rect x="520" y="540" width="380" height="260" rx="14" fill="#f8fafc" stroke="#64748b"/>
  <text x="542" y="574" font-family="Arial, sans-serif" font-size="18" font-weight="700" fill="#0f172a">Catalog of Consumption</text>
  <rect x="548" y="594" width="325" height="186" rx="10" fill="#fff" stroke="#94a3b8" stroke-dasharray="6 6"/>
  <text x="565" y="634" font-family="Arial, sans-serif" font-size="14" fill="#334155">• Chronological transaction list</text>
  <text x="565" y="662" font-family="Arial, sans-serif" font-size="14" fill="#334155">• Type badge + amount + description</text>
  <text x="565" y="690" font-family="Arial, sans-serif" font-size="14" fill="#334155">• Reset history action</text>

  <rect x="920" y="540" width="380" height="260" rx="14" fill="#f8fafc" stroke="#64748b"/>
  <text x="942" y="574" font-family="Arial, sans-serif" font-size="18" font-weight="700" fill="#0f172a">Consumption by Category</text>
  <circle cx="1010" cy="680" r="58" fill="#fff" stroke="#64748b" stroke-width="2"/>
  <circle cx="1010" cy="680" r="34" fill="#f8fafc" stroke="#94a3b8" stroke-width="2"/>
  <rect x="1090" y="620" width="185" height="120" rx="8" fill="#fff" stroke="#94a3b8" stroke-dasharray="6 6"/>
  <text x="1106" y="650" font-family="Arial, sans-serif" font-size="13" fill="#334155">Legend + % bars</text>
  <text x="1106" y="675" font-family="Arial, sans-serif" font-size="13" fill="#334155">Tooltip on hover</text>
  <text x="1106" y="700" font-family="Arial, sans-serif" font-size="13" fill="#334155">Real-time updates</text>
</svg>
